<svg height="139.34375pt" viewBox="0 0 116.72656 139.34375" width="116.72656pt" xmlns="http://www.w3.org/2000/svg" xmlns:xlink="http://www.w3.org/1999/xlink"><clipPath id="a"><path d="m344 760h19.33984v20h-19.33984zm0 0"/></clipPath><clipPath id="b"><path d="m264 789h10v8.54687h-10zm0 0"/></clipPath><clipPath id="c"><path d="m274 789h10v8.54687h-10zm0 0"/></clipPath><clipPath id="d"><path d="m284 789h5v8.54687h-5zm0 0"/></clipPath><clipPath id="e"><path d="m289 789h10v8.54687h-10zm0 0"/></clipPath><clipPath id="f"><path d="m299 789h8v8.54687h-8zm0 0"/></clipPath><clipPath id="g"><path d="m307 789h9v8.54687h-9zm0 0"/></clipPath><clipPath id="h"><path d="m317 788h6v9.54687h-6zm0 0"/></clipPath><clipPath id="i"><path d="m323 789h5v8.54687h-5zm0 0"/></clipPath><clipPath id="j"><path d="m329 789h7v8.54687h-7zm0 0"/></clipPath><clipPath id="k"><path d="m337 789h9v8.54687h-9zm0 0"/></clipPath><clipPath id="l"><path d="m295 658.20312h6v6.79688h-6zm0 0"/></clipPath><clipPath id="m"><path d="m309 658.20312h6v7.79688h-6zm0 0"/></clipPath><g fill="#231f20"><path d="m10.421879 102.56249v.76172l1.6875.8125-6.25782 7.26953 6.25782 9.30079h5.22656v-.76172l-2.23047-.92578-6.14844-8.92188 5.6836-5.875 2.28515-.89844v-.76172zm-10.42188 0v.76172l2.28906.95313v14.71484l-2.28906.95313v.76172h7.97266v-.76172l-2.25782-.95313-.0781-14.71484 2.33594-.95313v-.76172zm0 0"/><path d="m28.578129 110.23437 3.91796-6.01172-1.90234-.89844v-.76172h6.09375v.76172l-2.12109.89844-5.0625 7.45313v7.3164l2.99218.95313v.76172h-9.49609v-.73047l2.99609-.98438v-6.63672l-5.14453-8.1328-2.04297-.89845v-.76171h8.00391v.76171l-1.96094.89845zm0 0"/><path d="m44.796879 104.27343v11.01953c0 2.9375 1.27734 4.32813 4.05468 4.32813 1.30469 0 2.3125-.27344 3.04688-.81641 1.03515-.78906 1.41406-1.85156 1.41406-3.86328v-10.66797l-2.28906-.94922v-.76172h6.64453v.76172l-2.31641.94922v10.17969c0 2.55859-.70703 4.13672-2.30859 5.27734-1.33594.92578-2.94141 1.38672-4.95313 1.38672-4.38281 0-6.80078-2.09765-6.80078-5.79687v-11.04688l-2.3164-.94922v-.76172h8v.76172z"/><path d="m60.394529 119.92187v-4.49219h1.22266l1.41406 3.78125c.57422.13672.76172.13672 1.63281.13672 2.7461 0 4-.84375 4-2.69531 0-1.19531-.41015-1.73828-2.125-2.88281l-3.07031-2.01172c-2.04297-1.33594-2.94141-2.75-2.94141-4.59766 0-2.9375 2.42188-4.875 6.15235-4.875.94922 0 1.60156.11328 2.98828.4375l1.52734.35547.4336.082v4.41016h-1.16797l-1.35938-3.625c-.54687-.16016-.70703-.1875-1.57812-.1875-2.61328 0-3.86719.8164-3.86719 2.5039 0 1.11719.32813 1.52344 2.20703 2.7461l3.01953 1.96093c1.49219.97657 1.87891 1.30469 2.33985 2.01172.51562.76172.8164 1.84766.8164 2.85938 0 2.96484-2.47656 5.0039-6.07031 5.0039-1.00781 0-3.37109-.3789-5.57422-.92187"/><path d="m81.246089 111.92187v7.07031l2.28516.95313v.76172h-8.10547v-.76172l2.28125-.95313v-14.71875l-2.28125-.94922v-.76172h8.10547v.76172l-2.28516.94922v6.28516h7.83594v-6.28516l-2.28906-.94922v-.76172h8.11328v.76172l-2.28906.94922v14.71875l2.28906.95313v.76172h-8.11328v-.76172l2.28906-.95313v-7.07031zm0 0"/></g><g clip-path="url(#a)" transform="translate(-246.61328 -658.20312)"><path d="m350.47266 762.47656v11.01953c0 2.9375 1.27343 4.32813 4.05078 4.32813 1.30859 0 2.3125-.27344 3.04687-.81641 1.03516-.78906 1.41406-1.85156 1.41406-3.86328v-10.66797l-2.28515-.94922v-.76172h6.64062v.76172l-2.3125.94922v10.17969c0 2.55859-.70703 4.13672-2.3125 5.27734-1.33593.92578-2.9414 1.38672-4.95312 1.38672-4.37891 0-6.80078-2.09765-6.80078-5.79687v-11.04688l-2.3125-.94922v-.76172h7.99609v.76172z" fill="#231f20"/></g><g clip-path="url(#b)" transform="translate(-246.61328 -658.20312)"><path d="m267.53516 789.83594v5.04297c0 1.34765.58593 1.98046 1.85546 1.98046.59766 0 1.0586-.125 1.39454-.37109.47265-.36328.64843-.84766.64843-1.76953v-4.88281l-1.04687-.4375v-.34766h3.03906v.34766l-1.05859.4375v4.65625c0 1.17187-.32422 1.89453-1.0586 2.41797-.60937.42578-1.34765.63671-2.26953.63671-2.0039 0-3.10937-.96093-3.10937-2.65234v-5.05859l-1.0625-.4375v-.34766h3.66406v.34766z" fill="#231f20"/></g><g clip-path="url(#c)" transform="translate(-246.61328 -658.20312)"><path d="m276.72656 790.85547v5.71875l1 .43359v.35156h-2.85547v-.35156l1.04688-.43359v-6.73828l-1.04688-.4375v-.34766h2.44141l4.24609 5.61719v-4.83203l-.98437-.4375v-.34766h2.84375v.34766l-1.04688.4375v7.64843h-.63672zm0 0" fill="#231f20"/></g><g clip-path="url(#d)" transform="translate(-246.61328 -658.20312)"><path d="m285.9375 796.57422v-6.73828l-1.04688-.4375v-.34766h3.71485v.34766l-1.04688.4375v6.73828l1.04688.4375v.34765h-3.71485v-.34765zm0 0" fill="#231f20"/></g><g clip-path="url(#e)" transform="translate(-246.61328 -658.20312)"><path d="m293.6875 797.48437-2.95313-7.66406-.96093-.42187v-.34766h3.60156v.34766l-.94531.42187 1.64453 4.34766c.17187.4375.25.6875.39844 1.22265l2.26562-5.57031-.94531-.42187v-.34766h2.85156v.34766l-.96094.42187-3.35937 7.66406z" fill="#231f20"/></g><g clip-path="url(#f)" transform="translate(-246.61328 -658.20312)"><path d="m302.46094 793.46094v3.33593h2.63281l.71875-1.41796h.51172l-.14844 1.98046h-6.37891v-.35156l1.04688-.43359v-6.73828l-1.04688-.4375v-.34766h6.32032v1.99219h-.48828l-.625-1.4336h-2.54297v3.22657h2.09765l.44532-1.1211h.5v2.78907h-.5l-.44532-1.04297zm0 0" fill="#231f20"/></g><g clip-path="url(#g)" transform="translate(-246.61328 -658.20312)"><path d="m310.58594 792.89844h.57422c.87109 0 1.46875-.69922 1.46875-1.69141 0-.98437-.57422-1.59766-1.4961-1.59766h-.54687zm0 .54687v3.12891l1.04687.43359v.35156h-3.71094v-.35156l1.04297-.43359v-6.73828l-1.04297-.4375v-.34766h3.71094c1.00781 0 1.50781.13672 1.98047.53125.46094.36719.68359.875.68359 1.48438 0 1.12109-.69531 1.93359-1.86718 2.16796l2.29297 3.36329 1.00781.41015v.35156h-2.40625l-2.47656-3.91406z" fill="#231f20"/></g><g clip-path="url(#h)" transform="translate(-246.61328 -658.20312)"><path d="m317.00781 797v-2.05859h.5625l.64453 1.73046c.26172.0625.34766.0625.75.0625 1.25782 0 1.82813-.38281 1.82813-1.23046 0-.55079-.1836-.79688-.96875-1.32032l-1.40625-.92187c-.9375-.61328-1.34766-1.25781-1.34766-2.10547 0-1.34766 1.10938-2.23438 2.81641-2.23438.43359 0 .73437.0547 1.37109.20313l.69531.16016.19922.0391v2.01562h-.53515l-.6211-1.65234c-.25-.0781-.32422-.0898-.72265-.0898-1.19532 0-1.76953.375-1.76953 1.14453 0 .51562.14843.69922 1.00781 1.26172l1.38281.89453c.68359.44922.85938.59765 1.07031.92187.23828.34766.375.84766.375 1.3086 0 1.35937-1.13281 2.28906-2.77734 2.28906-.46094 0-1.54688-.17188-2.55469-.41797" fill="#231f20"/></g><g clip-path="url(#i)" transform="translate(-246.61328 -658.20312)"><path d="m324.9375 796.57422v-6.73828l-1.05078-.4375v-.34766h3.71484v.34766l-1.04687.4375v6.73828l1.04687.4375v.34765h-3.71484v-.34765zm0 0" fill="#231f20"/></g><g clip-path="url(#j)" transform="translate(-246.61328 -658.20312)"><path d="m333.32422 789.67578v6.89844l1.37109.43359v.35156h-4.34765v-.35156l1.37109-.43359v-6.89844h-1.54688l-.60937 1.73047h-.51172v-2.35547h6.94141v2.35547h-.52344l-.625-1.73047zm0 0" fill="#231f20"/></g><g clip-path="url(#k)" transform="translate(-246.61328 -658.20312)"><path d="m341.51562 792.5625 1.79688-2.75391-.875-.41015v-.34766h2.79297v.34766l-.97266.41015-2.3164 3.41407v3.35156l1.37109.43359v.35156h-4.35156v-.33593l1.37109-.44922v-3.03906l-2.35156-3.72657-.9375-.41015v-.34766h3.66406v.34766l-.89453.41015zm0 0" fill="#231f20"/></g><g fill="#77113c"><path d="m57.562499 29.355465h1.64844v.75h-1.64844zm6.17188-.15234v-.0117c0-.53516-.4336-.96875-.96485-.96875-.53515 0-.96875.43359-.96875.96875v3.69922h-2.42578v-.84766h.73438v-.004c.0234 0 .0469.004.0703.004.53515 0 .96484-.43359.96484-.96484v-2.69141c-.0117-.51172-.41406-.92578-.92187-.94922v-.0195h-3.63672c-.53516 0-.96485.4336-.96485.96875v2.64063h.004c-.004.0156-.004.0312-.004.0508 0 .5.38282.91406.8711.96094v.004h.94531v.84766h-2.46875v-3.6875h-.008v-.0117c0-.53516-.4336-.96875-.96485-.96875-.53515 0-.96875.43359-.96875.96875v3.88672h.008c-.004.0391-.008.0742-.008.11719 0 .90234.73438 1.63281 1.63672 1.63281h2.77344v.71094h-1.02344v.004c-.53906.0156-.96875.44141-.96875.96485 0 .52343.42969.94922.96875.96484v.004h1.40235v-.004c.84765-.0391 1.52734-.72266 1.55859-1.57812v-1.06641h2.80078v-.004c.83594-.0351 1.50781-.69922 1.5586-1.53125h.004v-4.08984h-.004"/><path d="m66.109379 8.687495c-.0195-.88281-.74219-1.59375-1.62891-1.59375h-5.17578v-1.03125h-.008c-.0391-.5-.45313-.89453-.96485-.89453-.50781 0-.92187.39453-.96094.89453h-.008v1.03125h-5.1289v.004c-.87891.0312-1.57813.75-1.57813 1.63281 0 .0664.004.13282.0117.20313v3.41015h.004c0 .0117-.004.0195-.004.0312 0 .53125.43359.96485.96484.96485.53516 0 .96875-.4336.96875-.96485 0-.0117-.004-.0195-.004-.0195l.008-.0117v-3.3125h2.44922v2.78125h.004v.0156c0 .53516.42969.96875.96485.96875.53125 0 .96484-.43359.96484-.96875 0-.004 0-.008 0-.0156h.004v-2.78125h2.78515v2.78125h.004v.0156c0 .53516.42969.96875.96484.96875.53125 0 .96485-.43359.96485-.96875v-.0156h.004v-2.78125h2.46094v3.34375c0 .53125.4336.96485.96485.96485.53515 0 .96484-.4336.96484-.96485v-.0195l.008-.0117v-3.65625h-.004"/><path d="m60.277339 17.921875-.55859-.54688.91797-.82031-.008-.0117c.19922-.15625.33984-.39453.36328-.67187.0469-.53125-.34766-.9961-.87891-1.04688-.30469-.0273-.58984.0937-.78515.30469l-1 .88672-.55469-.54297c-.0274-.0312-.0586-.0586-.0899-.082l-.0156-.0195c-.14844-.11719-.32813-.19141-.52734-.21094-.53125-.0469-1 .34766-1.04688.87891-.0195.26562.0664.51953.23047.71093l-.0117.008.56641.55078-.76563.6875c-.24609.15625-.41797.41797-.44531.73047-.0469.52734.34766 1 .87891 1.04297.28515.0273.55078-.0742.74609-.26172l.0117.0156.96484-.85937.65625.64453.008-.008c.14844.13281.33594.21875.54688.23437.53125.0469 1-.34375 1.04687-.87891.0234-.27734-.0742-.53906-.25-.73437"/><path d="m60.277339 22.578125v-.004l-.55859-.54297.91797-.82031-.008-.0117c.19922-.15625.33984-.39453.36328-.67187.0469-.52735-.34766-1-.87891-1.04688-.30469-.0273-.58984.0937-.78515.30078l-1 .89454-.55469-.54688c-.0274-.0273-.0586-.0586-.0899-.0859l-.0156-.0156c-.14844-.11719-.32813-.19531-.52734-.21485-.53125-.043-1 .34766-1.04688.87891-.0195.26953.0664.51953.23047.71094l-.0117.008.56641.55469-.76563.6875c-.24609.15625-.41797.41797-.44531.73047-.0469.53125.34766 1 .87891 1.04297.28515.0273.55078-.0742.74609-.25782l.0117.0156.96484-.85938.65625.64063.008-.008c.14844.1289.33594.21484.54688.23437.53125.043 1-.34375 1.04687-.87891.0234-.27734-.0742-.53906-.25-.73437"/><path d="m53.632809 21.042965v-.008h.0234c.53516 0 .96875-.42969.96875-.96094 0-.53515-.43359-.96875-.96875-.96875h-.0234v-.004h-1.50781v-1.03907h1.54688v-.004c.52734-.008.95312-.4375.95312-.96094 0-.53125-.42578-.95703-.95312-.96875h-1.54688v-.14453h-.004c-.0117-.52734-.4375-.94531-.96484-.94531-.52344 0-.94922.41797-.96484.94531h-.004v6.34375.0742c0 .90625.73047 1.63672 1.63281 1.63672.0899 0 .17969-.008.26563-.0195h1.57422v-.004c.53125 0 .96484-.4375.96484-.96484 0-.53516-.43359-.96485-.96484-.96875h-1.53516v-1.03907h1.50781"/><path d="m63.136719 21.042965v-.008c-.008 0-.0156 0-.0273 0-.53125 0-.96485-.42969-.96485-.96094 0-.53515.4336-.96875.96485-.96875h.0273v-.004h1.50391v-1.03907h-1.55079v-.004c-.51953-.008-.94531-.4375-.94531-.96094 0-.53125.42578-.95703.94531-.96875h1.55079v-.14453h.004c.0156-.52734.44141-.94531.96485-.94531.52734 0 .95312.41797.96484.94531h.008v6.41797c0 .90625-.73437 1.63672-1.63281 1.63672-.0937 0-.17969-.008-.26563-.0195h-1.57421v-.004c-.53125 0-.96485-.4375-.96485-.96484 0-.53516.4336-.96485.96485-.96875h1.53125v-1.03907h-1.5042"/><path d="m66.531249 26.269535c0-.88672-.70312-1.60547-1.58594-1.63282v-.004h-13.08593v.004c-.89844.004-1.625.73047-1.625 1.63282v5.98046h.008c.004.53125.43359.96094.96484.96094.53516 0 .96485-.42969.96485-.96484v-5.67578h12.42187v5.64062c0 .53125.4375.96485.96875.96485.53516 0 .96484-.4336.96484-.96485v-.004h.004v-5.9375"/><path d="m77.917969 4.273435-13.98438 50.45313c.043.0156.0859.0351.12891.0508l17.94141-48.1875c-1.32032-.83985-2.6836-1.61328-4.08594-2.31641"/><path d="m89.890629 13.031245-22.61719 43.45704c.0469.0273.0859.0586.1289.0898l25.48438-40.12887c-.94141-1.1914-1.94141-2.33203-2.99609-3.41797"/><path d="m98.097659 24.867185-28.16407 34.17578c.0352.043.0703.0899.10157.13672l29.71484-30.32031c-.48828-1.36328-1.03906-2.69531-1.65234-3.99219"/><path d="m101.95313 38.191405-30.328131 24.13281c.0156.0664.0352.12891.0547.19141l30.582021-20.30469c-.0391-1.35547-.14453-2.69531-.30859-4.01953"/><path d="m101.64844 51.093745-29.667971 14.79688c-.004.0742-.0117.14844-.0195.22266l28.914061-11.4375c.30859-1.17188.56641-2.36719.77344-3.58204"/><path d="m98.160159 62.214845-27.11328 7.01172c-.0391.0898-.082.17578-.125.25781l25.72656-4.33984c.53515-.95313 1.04297-1.9336 1.51172-2.92969"/><path d="m92.773439 70.890625-23.58594 1.03906c-.0742.0703-.14062.14453-.21484.21875l21.94922.92969c.64453-.70703 1.25781-1.4375 1.85156-2.1875"/><path d="m67.097659 73.718745c-.0859.0586-.17578.11719-.26172.17579l18.12109 4.66015c.64453-.49609 1.27735-1.00781 1.89453-1.53125z"/><path d="m65.117189 74.859375c-.0899.0391-.1836.082-.27344.125l14.5 7.20703c.60547-.33203 1.19922-.67578 1.78516-1.03125z"/><path d="m63.429689 75.527345c-.0664.0234-.14063.0469-.21094.0703l11.20313 8.88281c.52343-.20703 1.04687-.42187 1.5625-.64843l-12.55469-8.30469"/><path d="m62.019529 75.925785c-.0625.0117-.12109.0273-.18359.0391l8.23828 9.96484c.46484-.1289.92578-.26172 1.38281-.40625l-9.4375-9.59765"/><path d="m60.847659 76.148435c-.0547.004-.10547.0156-.16016.0234l5.55078 10.63281c.41797-.0742.83594-.16015 1.2461-.24219l-6.63672-10.41406"/><path d="m59.871089 76.265625c-.0547.004-.10546.0117-.15625.0156l3.07032 11.00391c.38672-.0391.77343-.082 1.15625-.12891l-4.07032-10.89062"/><path d="m58.964839 76.328125c-.0469 0-.0937 0-.13671.004l.69531 11.16015c.37109-.0117.73828-.0234 1.10547-.043l-1.66407-11.12109"/><path d="m56.050779 87.445315c.3711.0156.73828.0312 1.10938.043l.69531-11.16016c-.0469 0-.0937 0-.14063 0l-1.66406 11.11719"/><path d="m52.742189 87.144535c.38281.0508.76953.0937 1.15625.13671l3.0664-11c-.0508-.004-.10156-.0117-.15625-.0117l-4.0664 10.875"/><path d="m49.207029 86.542965c.41016.0859.82422.16797 1.24219.2461l5.54297-10.61719c-.0547-.008-.10547-.0195-.16016-.0234l-6.625 10.39453"/><path d="m45.242189 85.503905c.46094.14063.91797.27734 1.38281.40625l8.21875-9.94531c-.0586-.0117-.125-.0273-.18359-.0391l-9.41797 9.57812"/><path d="m40.734379 83.808595c.51171.22656 1.03125.44531 1.55078.65234l11.17578-8.86328c-.0703-.0234-.14063-.0469-.21485-.0703l-12.51171 8.28125"/><path d="m35.605469 81.140625c.58203.35547 1.17578.69531 1.77734 1.02344l14.45313-7.17969c-.0899-.043-.17969-.0859-.27344-.125z"/><path d="m29.902339 77.011715c.61329.52344 1.24219 1.03125 1.89063 1.52344l18.05078-4.64062c-.0898-.0586-.17578-.11719-.26172-.17579z"/><path d="m25.843749 73.074215 21.86328-.92578c-.0742-.0742-.14453-.14844-.21094-.22265l-23.49609-1.03125c.58984.74609 1.20703 1.47265 1.84375 2.17968"/><path d="m20.132809 65.160155 25.625 4.32422c-.043-.082-.0859-.16797-.1289-.25781l-27.00391-6.98438c.46875.99219.96875 1.96485 1.50781 2.91797"/><path d="m15.902339 54.718745 28.81641 11.39454c-.008-.0742-.0156-.14844-.0234-.22266l-29.5664-14.74609c.21093 1.20703.46875 2.39843.77343 3.57421"/><path d="m14.503909 42.269535 30.5 20.24609c.0156-.0625.0312-.125.0508-.19141l-30.25-24.0664c-.16016 1.3164-.25781 2.66015-.30078 4.01172"/><path d="m16.996089 28.929685 29.64844 30.25c.0312-.0469.0664-.0937.10156-.13672l-28.10937-34.10937c-.60938 1.30078-1.15625 2.6289-1.64063 3.99609"/><path d="m23.835939 16.515625 25.4414 40.0625c.043-.0312.0859-.0625.125-.0898l-22.58203-43.39844c-1.05078 1.08984-2.04687 2.23047-2.98437 3.42578"/><path d="m52.617189 54.777345c.043-.0156.0859-.0352.13281-.0508l-13.97656-50.41407c-1.40625.69922-2.76563 1.47657-4.08203 2.32032l17.92578 48.14453"/><path d="m62.855469 36.222655v.004h-1.52344l-1.07812 17.625c.0469.008.0937.0117.14062.0156l2.61328-17.66015c-.0508.008-.0976.0117-.15234.0156"/></g><g clip-path="url(#l)" transform="translate(-246.61328 -658.20312)"><path d="m297.60156 663.74609v-.004h2.48828l-.33593-5.52735c-1.59766.1875-3.16407.46875-4.70704.82032l.85157 5.7539c.3125-.60156.95312-1.01953 1.70312-1.04297" fill="#77113c"/></g><path d="m53.933589 37.964845 2.35157 15.90234c.0469-.004.0937-.008.14062-.0156l-.91406-14.98049c-.65234-.0508-1.22656-.39453-1.57813-.90625" fill="#77113c"/><g clip-path="url(#m)" transform="translate(-246.61328 -658.20312)"><path d="m312.01562 663.80078v.004c.008 0 .0156-.004.0234-.004.91797 0 1.6836.59766 1.90625 1.40234l.91406-6.18359c-1.53906-.35547-3.10546-.62891-4.70703-.81641l-.33984 5.59766h2.20312" fill="#77113c"/></g><g fill="#77113c"><path d="m61.558589 59.835935c.0352-.1875.0547-.38281.0547-.58203 0-1.78125-1.44531-3.22656-3.23047-3.22656-1.78515 0-3.22656 1.44531-3.22656 3.22656 0 .29688.0391.58203.11328.84766l.0312.17187 3.07813 10.23828 3.15625-10.46875h-.0156c.0156-.0625.0274-.13281.0391-.20703"/><path d="m51.937499 65.578125c-.12891-.11719-.27344-.22656-.43359-.32813-.19532-.11328-.39453-.20312-.57813-.26171-.45312-.17188-.95703-.22657-1.46484-.13282-1.51953.26563-2.53125 1.71094-2.26563 3.23047.22266 1.25781 1.25391 2.16406 2.46875 2.28906l-.004.004h.0312c.15234.0117.30859.0156.46875 0l7.91015.0547-6.13281-4.85547"/><path d="m64.832029 65.578125c.1211-.11719.26953-.22656.42969-.32813.19531-.11328.39453-.20312.58203-.26171.44922-.17188.95703-.22657 1.46484-.13282 1.51563.26563 2.52735 1.71094 2.26172 3.23047-.22265 1.25781-1.2539 2.16406-2.46484 2.28906v.004h-.0273c-.15625.0156-.3125.0156-.46875 0l-7.91407.0547 6.13672-4.85547"/></g></svg>